<svg xmlns="http://www.w3.org/2000/svg" viewBox="0 0 64 64">
  <rect width="64" height="64" rx="14" fill="#2563eb"/>
  <path d="M21 19c-4 0-7 3-7 7 0 2 1 4 3 5-2 1-3 3-3 6 0 4 3 7 7 7 2 0 4-1 5-2 1 2 3 3 6 3s5-1 6-3c1 1 3 2 5 2 4 0 7-3 7-7 0-3-1-5-3-6 2-1 3-3 3-5 0-4-3-7-7-7-2 0-4 1-5 2-1-2-3-3-6-3s-5 1-6 3c-1-1-3-2-5-2z" fill="#fff" stroke="#111827" stroke-width="4" stroke-linejoin="round"/>
  <path d="M24 28h16M24 36h16M32 22v20" stroke="#111827" stroke-width="3" stroke-linecap="round"/>
</svg>
